<svg width="24" height="33.1752" version="1.1" viewBox="0 0 157.5 307.907" xmlns="http://www.w3.org/2000/svg">
	<title>nn</title>
	<path d="m67.1653 247.952h119.301v59.9553h-214.62v-58.9397h33.7368q-18.2907-10.9742-28.2497-27.437-9.9591-16.462-9.9591-39.6308 0-34.1445 22.153-54.6723 21.9501-20.5268 62.5975-20.5268h134.341v59.7522h-123.366q-21.5435 0-32.7222 10.3652-11.3804 10.3657-11.3804 29.0628 0 18.4957 11.5844 30.2832 11.5854 11.7878 36.583 11.7878zm122.96-213.4q0 14.2259-9.9583 24.3873-10.1623 9.95926-24.5923 9.95926-14.2267 0-24.389-9.95926-10.1616-10.1614-10.1616-24.3873 0-14.4307 10.1616-24.3897 10.1623-10.1616 24.389-10.1616 14.43 0 24.5923 10.1616 9.9583 9.95903 9.9583 24.3897zm-142.064 0q0 14.2259-9.9588 24.3873-10.1626 9.95926-24.5912 9.95926-14.2271 0-24.3895-9.95926-10.1616-10.1614-10.1616-24.3873 0-14.4307 10.1616-24.3897 10.1624-10.1616 24.3895-10.1616 14.4286 0 24.5912 10.1616 9.9588 9.95903 9.9588 24.3897z" fill="white" />
</svg>
